<svg width="69" height="92" viewBox="0 0 69 92" fill="none" xmlns="http://www.w3.org/2000/svg">
<path d="M63.737 50.7547L68.4102 51.426L62.4622 45.8702L58.3269 47.2411L54.2087 48.6066L62.4622 45.8702L67.9133 44.5886L62.5604 41.8996L67.3359 41.814L62.3114 37.4355L66.2029 38.5598L61.5363 34.4144L65.3038 32.0328L59.3836 31.696L64.3399 29.0936L58.4334 28.526L63.1658 25.1971L60.7219 22.4496L55.992 25.4124L62.7031 21.2084L61.3945 20.7198L62.1618 17.3259L61.6127 12.498L60.353 7.48583L59.3365 3.38281L55.5355 0L53.6729 0.81126L51.9518 3.36523L48.1253 7.44276L44.5428 11.2667L42.7541 13.2008L39.2548 12.2402L37.0559 15.9389L35.7285 11.9325L34.4102 16.3201L36.879 21.1183L40.7489 28.6394L34.4102 16.3201V62.998L35.6124 64.1205L37.0836 65.4963L37.0864 65.4929L39.3558 64.9081L34.4102 66.188V68.9155L37.7912 70.5016L34.4102 68.9168V66.188L29.464 64.9076L31.7336 65.4925L31.7361 65.4958L34.4095 66.188V16.3201L28.0706 28.6402L31.9406 21.1191L34.4102 16.3201L33.0924 11.9323L31.765 15.9387L29.5662 12.24L26.0675 13.2006L24.2783 11.2666L20.695 7.44276L16.8683 3.36539L15.1471 0.811419L13.285 0L9.48447 3.38281L8.46793 7.48583L7.2081 12.498L6.65902 17.3259L7.42609 20.72L6.11769 21.2084L12.8289 25.4124L11.4585 22.0116L10.4795 19.5813L12.8289 25.4132L8.09903 22.4504L5.6553 25.1978L10.3874 28.5268L4.48041 29.0936L9.43606 31.6951L3.51608 32.0319L7.28324 34.4134L2.6166 38.5589L6.5081 37.4345L1.48427 41.814L6.2599 41.8996L0.907508 44.5886L6.35814 45.8702L0.410156 51.426L5.08328 50.7547L2.23726 64.5703L8.72309 61.1196L14.374 68.3923L11.2162 64.3284L8.72309 61.1196L4.40132 67.3796L8.72325 67.8184L7.68599 72.6104L10.8471 72.0631L8.95722 77.1207L8.86705 77.1879L14.8589 77.037L17.867 82.1418L21.7281 74.7801L19.2309 79.5415L23.3059 85.6175L27.5929 79.3662L26.3997 72.5476L27.0641 76.3435L27.5931 79.3662L25.1713 82.8976L30.7673 88.9044L32.298 86.3127L34.4102 91.3657V70.5112V70.8014V82.7394L38.0519 88.9042L43.6485 82.8974L41.2272 79.3661L41.7559 76.3434L42.4203 72.5474L41.2274 79.3661L45.5144 85.6174L49.5887 79.5414L47.0917 74.7799L50.9528 82.1416L53.961 77.0368L59.9528 77.1877L59.8628 77.1209L57.9741 72.063L61.1354 72.6103L60.0983 67.8182L64.4198 67.3794L60.0983 61.1194C60.0983 61.1194 64.3975 63.4186 64.4772 63.4495L66.5829 64.5702L63.737 50.7547ZM22.2253 32.7874L21.4646 32.9741L19.5226 33.4509L22.2253 32.7874ZM25.0769 35.8678L25.088 35.8709L25.0979 35.8787L25.0769 35.8678ZM24.2758 40.1676L24.2397 40.1575L24.2592 40.1559L24.256 40.1581L27.6798 41.8367L24.2758 40.1676ZM28.8605 58.5792L28.8673 58.5718L28.8607 58.5792L29.1339 62.0028L28.8605 58.5792ZM23.2343 32.5399L24.3805 32.2585L23.2343 32.5399ZM18.3743 33.7326L17.9562 33.8354L18.3743 33.7326ZM17.5881 38.0499L16.3944 41.1424L15.2849 44.016L17.5881 38.0499ZM46.5948 32.7874L49.297 33.4508L47.3549 32.9739L46.5948 32.7874ZM43.7221 35.8793L43.7324 35.8715L43.7434 35.8684L43.7221 35.8793V35.8793ZM44.564 40.1587L44.5613 40.1565L44.5804 40.1581L44.5445 40.1682L41.1407 41.8365L44.564 40.1587ZM50.4458 33.7328L50.8639 33.8356L50.4458 33.7328ZM45.5864 32.5399L44.4404 32.2585L45.5864 32.5399ZM39.9598 58.58L39.6863 62.0034L39.9598 58.58Z" fill="#B7BCCD"/>
<path d="M34.4102 91.3654L36.5211 86.3124L34.4102 82.7393V91.3654Z" fill="#B7BCCD"/>
<path d="M23.8236 32.4171C22.9359 32.7163 21.9753 32.4307 21.0602 32.6678C20.165 32.8999 19.3225 33.3129 18.4491 33.6124C18.3135 33.659 18.3719 33.8756 18.5083 33.8287C19.3323 33.5459 20.1284 33.1877 20.9602 32.9292C21.928 32.6293 22.9355 32.9522 23.8829 32.633C24.0188 32.5874 23.9606 32.3707 23.8233 32.4171" fill="#E796FF"/>
<path d="M19.5943 37.0788L19.5195 37.1534C19.5009 37.1749 19.4912 37.2026 19.4923 37.2309C19.4933 37.2592 19.505 37.2861 19.525 37.3062C19.5451 37.3262 19.5719 37.338 19.6002 37.339C19.6286 37.34 19.6562 37.3303 19.6777 37.3118L19.7525 37.2369C19.7717 37.2155 19.7821 37.1876 19.7814 37.1589C19.7806 37.1301 19.7689 37.1027 19.7486 37.0824C19.7283 37.0621 19.7009 37.0503 19.6722 37.0496C19.6435 37.0489 19.6156 37.0592 19.5943 37.0785" fill="#E796FF"/>
<path d="M8.14035 60.1728C8.12864 60.3359 8.08312 60.4948 8.00668 60.6393C7.9434 60.769 8.13703 60.8827 8.19999 60.7526C8.29479 60.573 8.3509 60.3755 8.36467 60.1728C8.36467 60.143 8.35285 60.1145 8.33182 60.0934C8.31078 60.0724 8.28226 60.0605 8.25251 60.0605C8.22276 60.0605 8.19424 60.0724 8.1732 60.0934C8.15217 60.1145 8.14035 60.143 8.14035 60.1728" fill="#E796FF"/>
<path d="M20.4873 18.8283L26.0665 13.2009L28.0123 16.1305L20.4873 18.8283Z" fill="#29475E"/>
<path d="M26.0665 13.2007L22.4764 13.3544L20.4873 18.8285L26.0665 13.2007Z" fill="#4830A2"/>
<path d="M22.4766 13.3543L24.2777 11.2664L26.0667 13.2005L22.4766 13.3543Z" fill="#483063"/>
<path d="M22.4761 13.3543L20.9795 11.2664H24.2775L22.4761 13.3543Z" fill="#603063"/>
<path d="M20.9796 11.2665L20.6948 7.44263L24.2771 11.2658L20.9796 11.2665Z" fill="#48302C"/>
<path d="M20.9799 11.2664L16.9863 6.63306L20.6951 7.44258L20.9799 11.2664Z" fill="#201659"/>
<path d="M16.9863 6.63324L16.8687 3.36523L20.6951 7.44276L16.9863 6.63324Z" fill="#394E53"/>
<path d="M16.9864 6.63309L13.061 3.07007L16.8687 3.36509L16.9864 6.63309Z" fill="#483063"/>
<path d="M13.0605 3.06975L15.1469 0.810791L16.8682 3.36492L13.0605 3.06975Z" fill="#4830A2"/>
<path d="M13.0605 3.07022L13.2849 0L15.1469 0.81126L13.0605 3.07022Z" fill="#394E53"/>
<path d="M13.0608 3.07022L9.48438 3.38281L13.2851 0L13.0608 3.07022Z" fill="#29475E"/>
<path d="M9.48438 3.38266L10.9693 4.74263L13.0608 3.07007L9.48438 3.38266Z" fill="#4830A2"/>
<path d="M9.48415 3.38306L8.46777 7.48592L10.9691 4.74302L9.48415 3.38306Z" fill="#201659"/>
<path d="M10.9692 14.1054L13.7868 14.776L16.9862 11.2664L10.9692 14.1054Z" fill="#483063"/>
<path d="M13.7866 14.7764L13.752 20.5523L16.3937 22.8142L13.7866 14.7764Z" fill="#394E53"/>
<path d="M13.7866 14.7764L20.4871 18.8286L16.3942 22.8147L13.7866 14.7764Z" fill="#AFD8E2"/>
<path d="M13.7866 14.7762L16.986 11.2664L20.4871 18.8279L13.7866 14.7762Z" fill="#EFDFCE"/>
<path d="M16.9863 11.2664H20.9799L20.4877 18.8279L16.9863 11.2664Z" fill="#E2D3CC"/>
<path d="M20.9796 11.2664L22.4764 13.3543L20.4873 18.8284L20.9796 11.2664Z" fill="#CFCAE5"/>
<path d="M10.969 14.1057L7.20801 12.498L10.4791 19.5802L10.969 14.1057Z" fill="#E8E9EB"/>
<path d="M7.20801 12.4977L8.46784 7.48535L10.969 14.1047L7.20801 12.4977Z" fill="#EFDFCE"/>
<path d="M10.9694 14.1055L13.7525 20.552L10.4795 19.58L10.9694 14.1055Z" fill="#D3C8C2"/>
<path d="M10.9692 14.1055L13.7523 20.552L13.7868 14.7761L10.9692 14.1055Z" fill="#C6B6AC"/>
<path d="M10.4795 19.5801L12.8289 25.4122L13.7523 20.5521L10.4795 19.5801Z" fill="#B7BCCD"/>
<path d="M13.7524 20.5522L16.3942 22.8142L12.8286 25.4124L13.7524 20.5522Z" fill="#A1AFB4"/>
<path d="M12.8288 25.4121L6.11768 21.208L11.4584 22.0104L12.8288 25.4121Z" fill="#B7A5BF"/>
<path d="M6.11768 21.2081L10.4792 19.5801L11.4584 22.0105L6.11768 21.2081Z" fill="#C2C3C7"/>
<path d="M10.4793 19.5804L6.65918 17.3262L7.2081 12.498L10.4793 19.5804Z" fill="#D1D3D4"/>
<path d="M6.65918 17.3257L7.42625 20.7199L10.4793 19.5797L6.65918 17.3257Z" fill="#A7BCDB"/>
<path d="M13.0605 3.07007L16.9859 11.2664V6.63309L13.0605 3.07007Z" fill="#777FA0"/>
<path d="M16.9863 6.63306L20.9799 11.2664H16.9863V6.63306Z" fill="#626BDD"/>
<path d="M13.0608 3.07007L10.9692 4.74263L16.9862 11.2669L13.0608 3.07007Z" fill="#7E91C1"/>
<path d="M10.9691 4.74268L8.46777 7.48557L16.986 11.2665L10.9691 4.74268Z" fill="#338A9E"/>
<path d="M21.4651 32.9739L17.9565 33.8352L25.0884 35.8713L21.4651 32.9739Z" fill="#A7D0DB"/>
<path d="M17.9565 33.8352L19.9787 36.741L24.3804 35.5903L17.9565 33.8352Z" fill="#BFD3E2"/>
<path d="M8.46777 7.48535L10.9691 14.1054L16.986 11.2663L8.46777 7.48535Z" fill="#717BC6"/>
<path d="M19.9788 36.741L17.5884 38.0499L22.0435 39.5299L19.9788 36.741Z" fill="#E7FFE6"/>
<path d="M26.6338 38.2974L27.6793 41.8365L24.2559 40.1593L26.6338 38.2974Z" fill="#48302C"/>
<path d="M26.6338 38.2974L28.2855 38.3336L27.6793 41.8365L26.6338 38.2974Z" fill="#483063"/>
<path d="M17.9565 33.8353L24.3804 32.2584L20.4501 27.0256L17.9565 33.8353Z" fill="#777FA0"/>
<path d="M28.0708 28.6396L12.8286 25.4126L16.3942 22.8145L28.0708 28.6396Z" fill="#777FA0"/>
<path d="M24.3808 32.2583L25.7254 36.3806L21.4653 32.9741L24.3808 32.2583Z" fill="#D3C8C2"/>
<path d="M24.3809 32.2582L28.2358 32.0896L26.6346 38.2972L25.7255 36.3811L24.3809 32.2582Z" fill="#DEFCFF"/>
<path d="M28.071 28.6394L28.2352 32.0897L24.3809 32.2585L28.071 28.6394Z" fill="#E7DAFF"/>
<path d="M28.0708 28.6394L30.7208 32.2585L28.235 32.0897L28.0708 28.6394Z" fill="#E8E9EB"/>
<path d="M28.2351 32.0896L30.5881 38.3841L26.6333 38.2972L28.2351 32.0896Z" fill="#D7E8F7"/>
<path d="M28.2354 32.0896L30.7212 32.2582L30.5883 38.3841L28.2354 32.0896Z" fill="#A7D0DB"/>
<path d="M30.7213 32.2583L34.4104 34.3196L30.5889 38.3842L30.7213 32.2583Z" fill="#7E91C1"/>
<path d="M30.5879 38.3842L34.4099 43.505V34.3203L30.5879 38.3842Z" fill="#A799DB"/>
<path d="M30.5879 38.3843L30.9071 46.5355L34.4099 43.5051L30.5879 38.3843Z" fill="#91A9D8"/>
<path d="M30.9077 46.5353L34.4104 53.9705V43.5049L30.9077 46.5353Z" fill="#99AAC6"/>
<path d="M30.9075 46.5352L28.6631 56.1105L34.4102 53.9703L30.9075 46.5352Z" fill="#B7A5BF"/>
<path d="M27.6797 41.8363L30.5883 38.3842L28.2859 38.3335L27.6797 41.8363Z" fill="#D1D3D4"/>
<path d="M28.0708 28.6397L34.41 26.9348L30.7213 32.2588L28.0708 28.6397Z" fill="#626BDD"/>
<path d="M30.7212 32.2586L34.4104 26.9348V34.3199L30.7212 32.2586Z" fill="#338A9E"/>
<path d="M28.0708 28.6394L34.41 16.3201V26.9346L28.0708 28.6394Z" fill="#5D679B"/>
<path d="M28.0709 28.6394L28.0127 16.1304L31.9407 21.1186L28.0709 28.6394Z" fill="#59617A"/>
<path d="M28.0126 16.1304L20.4873 18.8286L28.0708 28.6399L28.0126 16.1304Z" fill="#575756"/>
<path d="M28.0127 16.1303L31.7648 15.9387L31.9407 21.1184L28.0127 16.1303Z" fill="#575756"/>
<path d="M28.0127 16.1304L29.5652 12.2402L31.764 15.9388L28.0127 16.1304Z" fill="#69524C"/>
<path d="M31.7646 15.9387L34.4099 16.32L31.9409 21.1183L31.7646 15.9387Z" fill="#0C5B8C"/>
<path d="M31.7646 15.9386L33.092 11.9321L34.4099 16.3199L31.7646 15.9386Z" fill="#4830A2"/>
<path d="M29.5653 12.2402L26.0664 13.2007L28.0122 16.1303L29.5653 12.2402Z" fill="#295B60"/>
<path d="M20.4874 18.8284L16.3945 22.8145L28.0709 28.6397L20.4874 18.8284Z" fill="#626BDD"/>
<path d="M24.3808 32.2587L28.0715 28.6396L20.4497 27.0261L24.3808 32.2587Z" fill="#91A9D8"/>
<path d="M17.5882 38.0503L15.2849 44.0164L6.35791 45.8704L17.5882 38.0503Z" fill="#717BC6"/>
<path d="M17.5881 38.0503L19.7774 41.9815L16.3945 41.1422L17.5881 38.0503Z" fill="#91A9D8"/>
<path d="M19.7775 41.9812L19.6362 46.336L21.8702 46.9943L19.7775 41.9812Z" fill="#AA9FE2"/>
<path d="M19.7774 41.9814L16.3945 41.1421L19.6362 46.3362L19.7774 41.9814Z" fill="#A1AFB4"/>
<path d="M15.2846 44.0161L14.6109 48.6066L6.35742 45.8702L15.2846 44.0161Z" fill="#A1AFB4"/>
<path d="M15.2847 44.0161L17.2843 51.3232L14.6108 48.6066L15.2847 44.0161Z" fill="#A5C2D3"/>
<path d="M15.2852 44.016L16.3944 41.1423L19.6359 46.3364L15.2852 44.016Z" fill="#A5C2D3"/>
<path d="M28.6631 56.1107L28.7313 58.725L32.2553 54.7661L28.6631 56.1107Z" fill="#C0EBF2"/>
<path d="M28.6633 56.1106L23.3066 60.3221L29.1341 62.0032L28.6633 56.1106Z" fill="#FEFFE6"/>
<path d="M23.3066 60.322L24.7497 65.372L29.1341 62.0033L23.3066 60.322Z" fill="#FEF8CB"/>
<path d="M28.6633 56.1109L23.5409 54.6831L23.3066 60.3222L28.6633 56.1109Z" fill="#E7FFE6"/>
<path d="M23.541 54.6828L30.9077 46.5352L28.6632 56.1105L23.541 54.6828Z" fill="#C0EBF2"/>
<path d="M23.3064 60.3221L21.7363 58.4137L23.5408 54.6829L23.3064 60.3221Z" fill="#CFCAE5"/>
<path d="M32.2552 54.7666L34.4101 56.1109L30.9077 56.2243L32.2552 54.7666Z" fill="#CFCAE5"/>
<path d="M32.2554 54.7664L34.4103 53.9705V56.1106L32.2554 54.7664Z" fill="#C0B6E0"/>
<path d="M21.7364 58.4138L21.3623 60.1616L23.3065 60.3222L21.7364 58.4138Z" fill="#0C5B8C"/>
<path d="M21.3623 60.1616L24.7495 65.3716L23.3065 60.3216L21.3623 60.1616Z" fill="#626BDD"/>
<path d="M29.1338 62.0034L31.7357 65.4931L29.4638 64.9072L29.1338 62.0034Z" fill="#B7BCCD"/>
<path d="M22.3717 42.6673L24.2757 40.1686L22.0435 39.5303L22.3717 42.6673Z" fill="#E8E9EB"/>
<path d="M29.1336 62.0034L29.4636 64.9078L24.7495 65.3723L29.1336 62.0034Z" fill="#D1D3D4"/>
<path d="M34.4099 66.188L29.4639 64.9077L30.2635 66.7952L34.4099 66.188Z" fill="#6E877F"/>
<path d="M30.2636 66.7949L27.9224 67.6728L34.4103 67.2345V66.1882L30.2636 66.7949Z" fill="#295B60"/>
<path d="M27.9219 67.6727L31.3927 69.0365L34.4102 68.9152V67.2339L27.9219 67.6727Z" fill="#29475E"/>
<path d="M29.4639 64.9077L27.9219 67.6731L30.2631 66.7952L29.4639 64.9077Z" fill="#B7A5BF"/>
<path d="M29.4636 64.9077L24.7495 65.3722L27.9219 67.6731L29.4636 64.9077Z" fill="#B7BCCD"/>
<path d="M17.5884 38.0503L22.0435 39.5305L19.7777 41.9815L17.5884 38.0503Z" fill="#FEF8CB"/>
<path d="M22.0434 39.5303L22.3717 42.6673L19.7773 41.9813L22.0434 39.5303Z" fill="#E7FFE6"/>
<path d="M22.3717 42.667L21.8704 46.9943L19.7773 41.9812L22.3717 42.667Z" fill="#C0EBF2"/>
<path d="M22.3719 42.6672L23.3707 47.9166L21.8706 46.9945L22.3719 42.6672Z" fill="#AFD8E2"/>
<path d="M22.3721 42.6672L25.1961 44.924L23.3709 47.9169L22.3721 42.6672Z" fill="#B7BCCD"/>
<path d="M19.9785 36.7411C19.9785 36.7411 24.0803 34.4109 25.7254 36.3808L26.6346 38.2969C26.6346 38.2969 25.3141 41.4943 22.0439 39.5297C22.0439 39.5297 21.0218 38.6876 19.9791 36.7408" fill="#201659"/>
<path d="M23.8351 36.897C24.133 36.897 24.423 36.9921 24.6631 37.1685C24.9033 37.3448 25.0809 37.5933 25.1703 37.8777C25.2359 37.6679 25.2513 37.4456 25.2153 37.2288C25.1792 37.012 25.0927 36.8067 24.9626 36.6296C24.8326 36.4524 24.6628 36.3084 24.4669 36.2091C24.271 36.1098 24.0545 36.0581 23.8349 36.0581C23.6153 36.0581 23.3988 36.1098 23.2029 36.2091C23.007 36.3084 22.8372 36.4524 22.7072 36.6296C22.5772 36.8067 22.4906 37.012 22.4546 37.2288C22.4185 37.4456 22.4339 37.6679 22.4995 37.8777C22.589 37.5932 22.7667 37.3448 23.0069 37.1684C23.2471 36.992 23.5373 36.8969 23.8351 36.897" fill="#338A9E"/>
<path d="M23.8351 38.8579C24.1329 38.8579 24.423 38.7628 24.6631 38.5864C24.9033 38.4101 25.0809 38.1616 25.1702 37.8772C25.0809 37.5927 24.9032 37.3442 24.6631 37.1678C24.4229 36.9914 24.1328 36.8962 23.8349 36.8962C23.537 36.8962 23.2469 36.9914 23.0067 37.1678C22.7665 37.3442 22.5889 37.5927 22.4995 37.8772C22.5889 38.1617 22.7667 38.4101 23.0069 38.5865C23.2471 38.7629 23.5372 38.858 23.8351 38.8579" fill="#C0EBF2"/>
<path d="M24.4854 37.195C24.4854 37.2744 24.4619 37.352 24.4178 37.418C24.3737 37.4841 24.311 37.5355 24.2377 37.5659C24.1644 37.5963 24.0837 37.6042 24.0059 37.5887C23.9281 37.5732 23.8566 37.5349 23.8006 37.4787C23.7445 37.4226 23.7063 37.351 23.6908 37.2731C23.6753 37.1952 23.6833 37.1145 23.7137 37.0411C23.744 36.9677 23.7954 36.905 23.8614 36.8609C23.9274 36.8168 24.0049 36.7932 24.0843 36.7932C24.1907 36.7933 24.2927 36.8356 24.368 36.9109C24.4432 36.9863 24.4854 37.0884 24.4854 37.195" fill="#394E53"/>
<path d="M22.3721 42.6669L25.1961 44.9237L24.2761 40.1682L22.3721 42.6669Z" fill="#D7E8F7"/>
<path d="M24.2754 40.1682L27.6793 41.8362L25.1957 44.9241L24.2754 40.1682Z" fill="#BFD3E2"/>
<path d="M27.6797 41.8364L30.5883 38.3843L30.9076 46.5355L27.6797 41.8364Z" fill="#EFDFCE"/>
<path d="M27.6794 41.8362L25.1958 44.9241L30.9078 46.5357L27.6794 41.8362Z" fill="#E2D3CC"/>
<path d="M25.1952 44.9236L23.3701 47.9165L30.9071 46.5353L25.1952 44.9236Z" fill="#D3C8C2"/>
<path d="M23.3701 47.9163L23.5405 54.6828L30.9073 46.5352L23.3701 47.9163Z" fill="#C6B6AC"/>
<path d="M17.2847 51.3235L23.3703 47.9167L23.5406 54.6832L17.2847 51.3235Z" fill="#D1D3D4"/>
<path d="M19.6364 46.336L17.2852 51.3233L15.2852 44.0161L19.6364 46.336Z" fill="#E2D3CC"/>
<path d="M19.6359 46.3359L21.0743 49.2022L17.2847 51.3242L19.6359 46.3359Z" fill="#E8E9EB"/>
<path d="M14.6114 48.6067L9.6333 53.9707L17.2845 51.3235L14.6114 48.6067Z" fill="#E8E9EB"/>
<path d="M14.6114 48.6067L9.7676 49.144L9.6333 53.9707L14.6114 48.6067Z" fill="#FEF8CB"/>
<path d="M9.76758 49.1439L10.4934 47.2412L14.6114 48.6066L9.76758 49.1439Z" fill="#E7DAFF"/>
<path d="M21.8702 46.9942L21.0747 49.2012L19.6362 46.335L21.8702 46.9942Z" fill="#E7DAFF"/>
<path d="M21.8702 46.9944L23.3704 47.9165L21.0747 49.2014L21.8702 46.9944Z" fill="#CFCAE5"/>
<path d="M21.7363 58.4136L17.2847 51.323L23.5406 54.6828L21.7363 58.4136Z" fill="#C0B6E0"/>
<path d="M17.285 51.323L15.4884 57.208L9.63379 53.9704L17.285 51.323Z" fill="#D1D3D4"/>
<path d="M17.2847 51.323L21.7363 58.4136L15.4878 57.208L17.2847 51.323Z" fill="#E2D3CC"/>
<path d="M21.3624 60.1613L15.0337 62.1179L15.4885 57.2078L21.3624 60.1613Z" fill="#E2D3CC"/>
<path d="M31.7358 65.4963L34.4102 62.998V66.1881L31.7358 65.4963Z" fill="#444B4C"/>
<path d="M33.2078 64.1203L31.3237 62.3741L31.4296 60.6956H33.0722L33.2078 64.1203Z" fill="#201659"/>
<path d="M29.1335 62.0034L31.3242 62.3743L28.8604 58.5801L29.1335 62.0034Z" fill="#526386"/>
<path d="M31.43 60.6959L30.9072 56.2241L28.8604 58.58L31.43 60.6959Z" fill="#394E53"/>
<path d="M30.9077 56.224L34.4104 59.1709V56.1106L30.9077 56.224Z" fill="#201659"/>
<path d="M34.4101 59.1709L33.0732 60.6959L33.2088 64.1203L34.4101 62.9979V59.1709Z" fill="#483063"/>
<path d="M33.0727 60.6959L30.9072 56.2241L34.4101 59.171L33.0727 60.6959Z" fill="#603063"/>
<path d="M31.4305 60.6959L30.9077 56.2241L33.0732 60.6959H31.4305Z" fill="#483063"/>
<path d="M31.43 60.6962L31.3242 62.3748L28.8604 58.5806L31.43 60.6962Z" fill="#29475E"/>
<path d="M29.1338 62.0034L31.7357 65.4963L33.2085 64.1208L31.3244 62.3746L29.1338 62.0034Z" fill="#483063"/>
<path d="M15.4883 57.2081L9.63352 53.9705L8.72266 61.1195L15.4883 57.2081Z" fill="#626BDD"/>
<path d="M9.63365 53.9705L6.44531 56.2391L8.72326 61.1193L9.63365 53.9705Z" fill="#717BC6"/>
<path d="M6.44505 56.2392L5.0835 50.7546L9.63339 53.9705L6.44505 56.2392Z" fill="#7E91C1"/>
<path d="M5.0835 50.7545L9.76769 49.1436L9.63354 53.9703L5.0835 50.7545Z" fill="#A799DB"/>
<path d="M5.0835 50.7545L6.3582 45.8699L9.76769 49.1436L5.0835 50.7545Z" fill="#87B0C4"/>
<path d="M6.3584 45.8701L9.76805 49.1438L10.4938 47.2412L6.3584 45.8701Z" fill="#62A8C4"/>
<path d="M5.08364 50.7546L2.2373 64.5703L6.44519 56.2393L5.08364 50.7546Z" fill="#8CCADB"/>
<path d="M6.44519 56.239L8.72314 61.1192L2.2373 64.57L6.44519 56.239Z" fill="#62A8C4"/>
<path d="M5.08377 50.7545L0.410645 51.4256L6.35863 45.8699L5.08377 50.7545Z" fill="#A5C2D3"/>
<path d="M17.5883 38.0503L6.26025 41.8999L6.35849 45.8704L17.5883 38.0503Z" fill="#626BDD"/>
<path d="M6.25977 41.8996L6.50892 37.4355L17.5878 38.0504L6.25977 41.8996Z" fill="#5381FF"/>
<path d="M17.5884 38.0499L17.9566 33.8352L19.9788 36.7409L17.5884 38.0499Z" fill="#8A979B"/>
<path d="M6.26011 41.8994L0.907715 44.5883L6.35835 45.8699L6.26011 41.8994Z" fill="#8A979B"/>
<path d="M6.25985 41.8996L1.48438 41.8141L6.509 37.4355L6.25985 41.8996Z" fill="#755984"/>
<path d="M6.50879 37.4353L7.28393 34.4136L17.588 38.0504L6.50879 37.4353Z" fill="#A799DB"/>
<path d="M12.8291 25.4124L17.9565 33.8352L20.4501 27.0258L12.8291 25.4124Z" fill="#7E91C1"/>
<path d="M12.829 25.4124L10.3872 28.526H14.7246L12.829 25.4124Z" fill="#777FA0"/>
<path d="M10.3869 28.5259L9.43652 31.6947L14.7244 28.5259H10.3869Z" fill="#717BC6"/>
<path d="M9.43684 31.6948L17.5881 38.05L7.28418 34.4132L9.43684 31.6948Z" fill="#53B1DB"/>
<path d="M9.43652 31.6948L17.9561 33.8353L17.5878 38.05L9.43652 31.6948Z" fill="#7E91C1"/>
<path d="M9.43652 31.6947L14.7244 28.5259L17.9561 33.8353L9.43652 31.6947Z" fill="#53B1DB"/>
<path d="M9.43675 31.6947L4.48047 29.0934L10.3867 28.5259L9.43675 31.6947Z" fill="#5D679B"/>
<path d="M9.43659 31.6948L3.5166 32.0317L7.28392 34.4132L9.43659 31.6948Z" fill="#338A9E"/>
<path d="M7.28382 34.4133L2.61719 38.5591L6.50869 37.4348L7.28382 34.4133Z" fill="#777FA0"/>
<path d="M12.8287 25.4125L10.3869 28.5261L5.65479 25.1973L12.8287 25.4125Z" fill="#727271"/>
<path d="M5.65479 25.1967L8.09868 22.4492L12.8286 25.4119L5.65479 25.1967Z" fill="#B2967D"/>
<path d="M8.72266 61.1196L14.3737 68.3925L15.0335 62.1185L8.72266 61.1196Z" fill="#B7BCCD"/>
<path d="M15.4883 57.2078L15.0335 62.1179L8.72266 61.119L15.4883 57.2078Z" fill="#C0B6E0"/>
<path d="M14.3735 68.3921L21.3623 60.1614L15.0335 62.118L14.3735 68.3921Z" fill="#D7E8F7"/>
<path d="M21.3623 60.1616L17.9309 67.0691L14.3735 68.3922L21.3623 60.1616Z" fill="#EFDFCE"/>
<path d="M21.362 60.1616L24.7492 65.3715L17.9312 67.0687L21.362 60.1616Z" fill="#D1D3D4"/>
<path d="M14.3735 68.392L17.2825 70.9488L17.9311 67.0691L14.3735 68.392Z" fill="#D1D3D4"/>
<path d="M14.3732 68.3922L4.40039 67.3787L11.2154 64.3276L14.3732 68.3922Z" fill="#87B0C4"/>
<path d="M8.72267 61.1196L4.40137 67.3796L11.2164 64.3284L8.72267 61.1196Z" fill="#53B1FF"/>
<path d="M14.3734 68.3922L7.68506 72.6104L8.72232 67.8184L14.3734 68.3922Z" fill="#7E91C1"/>
<path d="M14.3737 68.3921L17.2827 70.9489L7.68555 72.6102L14.3737 68.3921Z" fill="#91A9D8"/>
<path d="M17.2827 70.9491L24.7493 65.3721L17.9313 67.0692L17.2827 70.9491Z" fill="#C6B6AC"/>
<path d="M17.2825 70.9487L8.95264 77.1351L10.8467 72.0628L17.2825 70.9487Z" fill="#A1AFB4"/>
<path d="M17.2825 70.9487L15.0335 77.0321L8.86768 77.1873L17.2825 70.9487Z" fill="#8A979B"/>
<path d="M17.2827 70.949L21.7291 74.78L23.667 69.4695L17.2827 70.949Z" fill="#A7BCDB"/>
<path d="M24.7496 65.3721L23.6668 69.4695L17.2827 70.9491L24.7496 65.3721Z" fill="#B7BCCD"/>
<path d="M27.9219 67.6729L31.0292 70.5013L31.3931 69.0366L27.9219 67.6729Z" fill="#E8E9EB"/>
<path d="M31.3925 69.0372L34.41 68.9158L31.0293 70.5019L31.3925 69.0372Z" fill="#DEFCFF"/>
<path d="M31.0288 70.5015L34.41 70.8011V68.915L31.0288 70.5015Z" fill="#E7FFE6"/>
<path d="M31.0288 70.5017L34.41 72.9586V70.8013L31.0288 70.5017Z" fill="#C0EBF2"/>
<path d="M26.4007 72.5476L21.729 74.7804L24.0645 77.434L26.4007 72.5476Z" fill="#C0B6E0"/>
<path d="M26.4005 72.5476L27.5937 79.3664L24.0649 77.4345L26.4005 72.5476Z" fill="#CFCAE5"/>
<path d="M27.5939 79.366L34.4102 82.7393L27.0654 76.3433L27.5939 79.366Z" fill="#BFD3E2"/>
<path d="M27.5938 79.3665L30.7679 88.9043L34.41 82.7398L27.5938 79.3665Z" fill="#C0EBF2"/>
<path d="M27.5936 79.3663L23.3066 85.6175L24.066 77.4341L27.5936 79.3663Z" fill="#D1D3D4"/>
<path d="M27.5938 79.3665L25.1719 82.8978L30.7679 88.9046L27.5938 79.3665Z" fill="#E8E9EB"/>
<path d="M34.4102 82.7393L32.2993 86.3124L34.4102 88.4711V82.7393Z" fill="#EFDFCE"/>
<path d="M32.2988 86.3127L34.41 91.3659V88.4716L32.2988 86.3127Z" fill="#FEF8CB"/>
<path d="M27.0649 76.3434L30.9074 74.6582L34.4101 82.7393L27.0649 76.3434Z" fill="#CFCAE5"/>
<path d="M30.9077 74.6582L34.4104 72.9583V82.7393L30.9077 74.6582Z" fill="#D1D3D4"/>
<path d="M31.0289 70.5017L30.9072 74.6586L34.4101 72.9586L31.0289 70.5017Z" fill="#A5C2D3"/>
<path d="M31.0291 70.5017L27.0649 76.3438L30.9074 74.6586L31.0291 70.5017Z" fill="#C0B6E0"/>
<path d="M27.9216 67.6729L26.4004 72.5472L31.0289 70.5013L27.9216 67.6729Z" fill="#B7A5BF"/>
<path d="M31.0289 70.5017L27.0648 76.3438L26.4004 72.5477L31.0289 70.5017Z" fill="#A5C2D3"/>
<path d="M24.7495 65.3721L27.9218 67.673L23.6665 69.4695L24.7495 65.3721Z" fill="#78B9DD"/>
<path d="M21.7288 74.7803L17.8677 82.1418L14.8594 77.037L21.7288 74.7803Z" fill="#AA9FE2"/>
<path d="M21.7285 74.7803L23.3062 85.6176L24.0647 77.4342L21.7285 74.7803Z" fill="#B7BCCD"/>
<path d="M21.7286 74.7803L19.2314 79.5416L23.3063 85.6174L21.7286 74.7803Z" fill="#A1AFB4"/>
<path d="M17.2824 70.9487L21.7288 74.7797L14.8594 77.0364L17.2824 70.9487Z" fill="#99AAC6"/>
<path d="M23.6664 69.4695L26.4002 72.5475L21.7285 74.7803L23.6664 69.4695Z" fill="#C6B6AC"/>
<path d="M23.6665 69.4694L27.9218 67.6729L26.4007 72.5472L23.6665 69.4694Z" fill="#B7BCCD"/>
<path d="M21.7364 58.4138L21.3622 60.1616L15.4883 57.2083L21.7364 58.4138Z" fill="#B7BCCD"/>
<path d="M44.9968 32.4171C45.8841 32.7163 46.8449 32.4307 47.7596 32.6678C48.6552 32.8999 49.4978 33.3129 50.3708 33.6124C50.5066 33.659 50.4485 33.8756 50.3115 33.8287C49.4875 33.5459 48.6916 33.1877 47.8595 32.9292C46.8919 32.6293 45.8844 32.9522 44.9371 32.633C44.8011 32.5874 44.8596 32.3707 44.9971 32.4171" fill="#E796FF"/>
<path d="M49.2266 37.0784L49.3011 37.153C49.3204 37.1743 49.3307 37.2022 49.33 37.231C49.3293 37.2597 49.3176 37.2871 49.2973 37.3075C49.2769 37.3278 49.2496 37.3395 49.2209 37.3403C49.1921 37.341 49.1642 37.3306 49.1429 37.3113L49.0678 37.2364C49.0493 37.215 49.0396 37.1873 49.0406 37.159C49.0416 37.1306 49.0533 37.1037 49.0734 37.0837C49.0934 37.0636 49.1203 37.0519 49.1486 37.0509C49.1769 37.0498 49.2045 37.0595 49.226 37.0781" fill="#E796FF"/>
<path d="M60.6796 60.1729C60.6916 60.336 60.7372 60.4948 60.8134 60.6394C60.8767 60.7691 60.6834 60.8828 60.6203 60.7527C60.5254 60.5731 60.4693 60.3756 60.4556 60.1729C60.4556 60.1432 60.4674 60.1147 60.4884 60.0936C60.5094 60.0726 60.5379 60.0608 60.5676 60.0608C60.5973 60.0608 60.6258 60.0726 60.6468 60.0936C60.6678 60.1147 60.6796 60.1432 60.6796 60.1729" fill="#E796FF"/>
<path d="M48.3328 18.8285L42.754 13.2007L40.8071 16.1303L48.3328 18.8285Z" fill="#29475E"/>
<path d="M42.7539 13.2007L46.3434 13.3544L48.3327 18.8285L42.7539 13.2007Z" fill="#4830A2"/>
<path d="M46.3436 13.3543L44.5426 11.2664L42.7539 13.2005L46.3436 13.3543Z" fill="#483063"/>
<path d="M46.344 13.3543L47.8408 11.2664H44.543L46.344 13.3543Z" fill="#603063"/>
<path d="M47.8408 11.2665L48.1255 7.44263L44.543 11.2665H47.8408Z" fill="#48302C"/>
<path d="M47.8408 11.2664L51.8345 6.63306L48.1256 7.44258L47.8408 11.2664Z" fill="#201659"/>
<path d="M51.8344 6.63324L51.9518 3.36523L48.1255 7.44276L51.8344 6.63324Z" fill="#394E53"/>
<path d="M51.8345 6.63309L55.7597 3.07007L51.952 3.36509L51.8345 6.63309Z" fill="#483063"/>
<path d="M55.7593 3.06975L53.6728 0.810791L51.9517 3.36492L55.7593 3.06975Z" fill="#4830A2"/>
<path d="M55.7594 3.07022L55.5354 0L53.6729 0.81126L55.7594 3.07022Z" fill="#394E53"/>
<path d="M55.7596 3.07022L59.3362 3.38281L55.5356 0L55.7596 3.07022Z" fill="#29475E"/>
<path d="M59.3358 3.38266L57.8507 4.74263L55.7593 3.07007L59.3358 3.38266Z" fill="#4830A2"/>
<path d="M59.3357 3.38306L60.3522 7.48592L57.8506 4.74302L59.3357 3.38306Z" fill="#201659"/>
<path d="M57.8511 14.1055L55.0334 14.7762L51.8345 11.2664L57.8511 14.1055Z" fill="#483063"/>
<path d="M55.0334 14.7764L55.0681 20.5523L52.4263 22.8142L55.0334 14.7764Z" fill="#394E53"/>
<path d="M55.0335 14.7764L48.333 18.8286L52.4262 22.8147L55.0335 14.7764Z" fill="#AFD8E2"/>
<path d="M55.0335 14.7762L51.8344 11.2664L48.333 18.8284L55.0335 14.7762Z" fill="#EFDFCE"/>
<path d="M51.8345 11.2664H47.8408L48.333 18.8279L51.8345 11.2664Z" fill="#E2D3CC"/>
<path d="M47.8407 11.2664L46.3438 13.3543L48.333 18.8284L47.8407 11.2664Z" fill="#CFCAE5"/>
<path d="M57.8506 14.1057L61.6119 12.498L58.3405 19.5802L57.8506 14.1057Z" fill="#E8E9EB"/>
<path d="M61.6119 12.4977L60.3522 7.48535L57.8506 14.1047L61.6119 12.4977Z" fill="#EFDFCE"/>
<path d="M57.8508 14.1055L55.0679 20.552L58.3407 19.58L57.8508 14.1055Z" fill="#D3C8C2"/>
<path d="M57.8511 14.1055L55.0682 20.552L55.0332 14.7761L57.8511 14.1055Z" fill="#C6B6AC"/>
<path d="M58.3408 19.5801L55.9914 25.4122L55.0679 20.5521L58.3408 19.5801Z" fill="#B7BCCD"/>
<path d="M55.0681 20.5522L52.4263 22.8142L55.9917 25.4124L55.0681 20.5522Z" fill="#A1AFB4"/>
<path d="M55.9917 25.4121L62.7028 21.208L57.3619 22.0112L55.9917 25.4121Z" fill="#B7A5BF"/>
<path d="M62.7027 21.2081L58.341 19.5801L57.3618 22.0113L62.7027 21.2081Z" fill="#C2C3C7"/>
<path d="M58.3408 19.5804L62.1611 17.3262L61.6121 12.498L58.3408 19.5804Z" fill="#D1D3D4"/>
<path d="M62.161 17.3257L61.3934 20.7199L58.3403 19.5797L62.161 17.3257Z" fill="#A7BCDB"/>
<path d="M55.7593 3.07007L51.834 11.2664V6.63309L55.7593 3.07007Z" fill="#777FA0"/>
<path d="M51.8345 6.63306L47.8408 11.2664H51.8345V6.63306Z" fill="#626BDD"/>
<path d="M55.7593 3.07007L57.8508 4.74263L51.834 11.2669L55.7593 3.07007Z" fill="#7E91C1"/>
<path d="M57.8511 4.74268L60.3526 7.48557L51.8345 11.2665L57.8511 4.74268Z" fill="#338A9E"/>
<path d="M47.3551 32.9739L50.8638 33.8352L43.7319 35.8713L47.3551 32.9739Z" fill="#A7D0DB"/>
<path d="M50.8639 33.8352L48.8418 36.741L44.4395 35.5903L50.8639 33.8352Z" fill="#BFD3E2"/>
<path d="M60.3527 7.48535L57.8511 14.1054L51.8345 11.2663L60.3527 7.48535Z" fill="#717BC6"/>
<path d="M48.8414 36.741L51.2321 38.0499L46.7769 39.5299L48.8414 36.741Z" fill="#E7FFE6"/>
<path d="M42.1861 38.2974L41.1406 41.8365L44.564 40.1593L42.1861 38.2974Z" fill="#48302C"/>
<path d="M42.1859 38.2974L40.5342 38.3336L41.1404 41.8365L42.1859 38.2974Z" fill="#483063"/>
<path d="M50.8639 33.8353L44.4395 32.2584L48.3696 27.0256L50.8639 33.8353Z" fill="#777FA0"/>
<path d="M40.749 28.6396L55.9912 25.4126L52.4254 22.8145L40.749 28.6396Z" fill="#777FA0"/>
<path d="M44.4393 32.2583L43.0947 36.3806L47.3548 32.9741L44.4393 32.2583Z" fill="#D3C8C2"/>
<path d="M44.4393 32.2582L40.584 32.0896L42.1854 38.2972L43.0943 36.3811L44.4393 32.2582Z" fill="#DEFCFF"/>
<path d="M40.7493 28.6394L40.585 32.0897L44.4402 32.2585L40.7493 28.6394Z" fill="#E7DAFF"/>
<path d="M40.7493 28.6394L38.0996 32.2585L40.585 32.0897L40.7493 28.6394Z" fill="#E8E9EB"/>
<path d="M40.5847 32.0896L38.2319 38.3841L42.1867 38.2972L40.5847 32.0896Z" fill="#D7E8F7"/>
<path d="M40.585 32.0896L38.0996 32.2582L38.2322 38.3841L40.585 32.0896Z" fill="#A7D0DB"/>
<path d="M38.0995 32.2583L34.4102 34.3196L38.2317 38.3842L38.0995 32.2583Z" fill="#7E91C1"/>
<path d="M38.232 38.3842L34.4102 43.505V34.3203L38.232 38.3842Z" fill="#A799DB"/>
<path d="M38.232 38.3843L37.9125 46.5355L34.4102 43.5051L38.232 38.3843Z" fill="#91A9D8"/>
<path d="M37.9127 46.5353L34.4102 53.9705V43.5049L37.9127 46.5353Z" fill="#99AAC6"/>
<path d="M37.9127 46.5352L40.1571 56.1105L34.4102 53.9703L37.9127 46.5352Z" fill="#B7A5BF"/>
<path d="M41.1406 41.8363L38.2319 38.3842L40.5344 38.3335L41.1406 41.8363Z" fill="#D1D3D4"/>
<path d="M40.7492 28.6397L34.4102 26.9348L38.0992 32.2588L40.7492 28.6397Z" fill="#626BDD"/>
<path d="M38.0995 32.2586L34.4102 26.9348V34.3199L38.0995 32.2586Z" fill="#338A9E"/>
<path d="M40.7492 28.6394L34.4102 16.3201V26.9346L40.7492 28.6394Z" fill="#5D679B"/>
<path d="M40.7492 28.6394L40.8073 16.1304L36.8794 21.1186L40.7492 28.6394Z" fill="#59617A"/>
<path d="M40.8074 16.1304L48.333 18.8286L40.7495 28.6399L40.8074 16.1304Z" fill="#575756"/>
<path d="M40.8073 16.1303L37.0555 15.9387L36.8794 21.1184L40.8073 16.1303Z" fill="#575756"/>
<path d="M40.8075 16.1304L39.255 12.2402L37.0562 15.9388L40.8075 16.1304Z" fill="#69524C"/>
<path d="M37.0556 15.9387L34.4102 16.32L36.879 21.1183L37.0556 15.9387Z" fill="#0C5B8C"/>
<path d="M37.0556 15.9386L35.7282 11.9321L34.4102 16.3199L37.0556 15.9386Z" fill="#4830A2"/>
<path d="M39.2549 12.2402L42.7542 13.2008L40.8074 16.1304L39.2549 12.2402Z" fill="#295B60"/>
<path d="M48.333 18.8284L52.4262 22.8145L40.7495 28.6397L48.333 18.8284Z" fill="#626BDD"/>
<path d="M44.4395 32.2587L40.7485 28.6396L48.3695 27.0261L44.4395 32.2587Z" fill="#91A9D8"/>
<path d="M51.2324 38.0503L53.5354 44.0164L62.4624 45.8704L51.2324 38.0503Z" fill="#717BC6"/>
<path d="M51.2326 38.0503L49.043 41.9815L52.4259 41.1422L51.2326 38.0503Z" fill="#91A9D8"/>
<path d="M49.0429 41.9812L49.1838 46.336L46.9497 46.9943L49.0429 41.9812Z" fill="#AA9FE2"/>
<path d="M49.043 41.9814L52.4259 41.1421L49.1839 46.3362L49.043 41.9814Z" fill="#A1AFB4"/>
<path d="M53.5352 44.0161L54.2087 48.6066L62.4622 45.8702L53.5352 44.0161Z" fill="#A1AFB4"/>
<path d="M53.5353 44.0161L51.5352 51.3233L54.2086 48.6067L53.5353 44.0161Z" fill="#A5C2D3"/>
<path d="M53.5355 44.016L52.4265 41.1423L49.1846 46.3364L53.5355 44.016Z" fill="#A5C2D3"/>
<path d="M40.157 56.1107L40.089 58.725L36.5649 54.7661L40.157 56.1107Z" fill="#C0EBF2"/>
<path d="M40.1568 56.1106L45.514 60.3221L39.6865 62.0032L40.1568 56.1106Z" fill="#FEFFE6"/>
<path d="M45.514 60.322L44.0708 65.372L39.6865 62.0033L45.514 60.322Z" fill="#FEF8CB"/>
<path d="M40.1567 56.1109L45.2791 54.6831L45.5139 60.3222L40.1567 56.1109Z" fill="#E7FFE6"/>
<path d="M45.2792 54.6828L37.9126 46.5352L40.157 56.1105L45.2792 54.6828Z" fill="#C0EBF2"/>
<path d="M45.514 60.3221L47.0839 58.4137L45.2793 54.6829L45.514 60.3221Z" fill="#CFCAE5"/>
<path d="M36.5649 54.7666L34.4102 56.1109L37.9124 56.2243L36.5649 54.7666Z" fill="#CFCAE5"/>
<path d="M36.5649 54.7664L34.4102 53.9705V56.1106L36.5649 54.7664Z" fill="#C0B6E0"/>
<path d="M47.084 58.4138L47.4582 60.1616L45.5142 60.3222L47.084 58.4138Z" fill="#0C5B8C"/>
<path d="M47.458 60.1616L44.0708 65.3716L45.514 60.3216L47.458 60.1616Z" fill="#626BDD"/>
<path d="M39.6865 62.0034L37.0835 65.4931L39.3556 64.9072L39.6865 62.0034Z" fill="#B7BCCD"/>
<path d="M46.4486 42.6673L44.5444 40.1686L46.777 39.5303L46.4486 42.6673Z" fill="#E8E9EB"/>
<path d="M39.6868 62.0034L39.3564 64.9078L44.0705 65.3723L39.6868 62.0034Z" fill="#D1D3D4"/>
<path d="M34.4102 66.188L39.3562 64.9077L38.5568 66.7948L34.4102 66.188Z" fill="#6E877F"/>
<path d="M38.5568 66.7949L40.898 67.6728L34.4102 67.2345V66.1882L38.5568 66.7949Z" fill="#295B60"/>
<path d="M40.8985 67.6727L37.4277 69.0365L34.4102 68.9152V67.2339L40.8985 67.6727Z" fill="#29475E"/>
<path d="M39.3563 64.9077L40.8984 67.6731L38.5571 66.7952L39.3563 64.9077Z" fill="#B7A5BF"/>
<path d="M39.3564 64.9077L44.0705 65.3722L40.898 67.6731L39.3564 64.9077Z" fill="#B7BCCD"/>
<path d="M51.2326 38.0503L46.7773 39.5305L49.043 41.9815L51.2326 38.0503Z" fill="#FEF8CB"/>
<path d="M46.7771 39.5303L46.4487 42.6673L49.0431 41.9813L46.7771 39.5303Z" fill="#E7FFE6"/>
<path d="M46.4487 42.667L46.9499 46.9943L49.0431 41.9812L46.4487 42.667Z" fill="#C0EBF2"/>
<path d="M46.4487 42.6672L45.4497 47.9166L46.9497 46.9945L46.4487 42.6672Z" fill="#AFD8E2"/>
<path d="M46.4487 42.6672L43.625 44.924L45.4501 47.9169L46.4487 42.6672Z" fill="#B7BCCD"/>
<path d="M48.8418 36.7411C48.8418 36.7411 44.7402 34.4109 43.095 36.3808L42.186 38.2969C42.186 38.2969 43.5066 41.4943 46.7771 39.5297C46.7771 39.5297 47.7991 38.6876 48.8415 36.7408" fill="#201659"/>
<path d="M44.9857 36.8969C44.6878 36.897 44.3978 36.9921 44.1576 37.1684C43.9175 37.3448 43.7397 37.5932 43.6502 37.8776C43.5844 37.6678 43.5689 37.4453 43.6048 37.2284C43.6408 37.0114 43.7273 36.8059 43.8573 36.6286C43.9873 36.4513 44.1572 36.3072 44.3533 36.2078C44.5493 36.1084 44.7659 36.0566 44.9856 36.0566C45.2053 36.0566 45.422 36.1084 45.618 36.2078C45.814 36.3072 45.9839 36.4513 46.1139 36.6286C46.2439 36.8059 46.3304 37.0114 46.3664 37.2284C46.4024 37.4453 46.3868 37.6678 46.321 37.8776C46.2316 37.5932 46.0539 37.3447 45.8138 37.1684C45.5736 36.992 45.2835 36.8969 44.9857 36.8969Z" fill="#338A9E"/>
<path d="M44.9853 38.8579C44.6875 38.8579 44.3974 38.7627 44.1573 38.5864C43.9171 38.41 43.7394 38.1616 43.6499 37.8772C43.7393 37.5927 43.9169 37.3442 44.1571 37.1678C44.3973 36.9914 44.6874 36.8962 44.9853 36.8962C45.2832 36.8962 45.5733 36.9914 45.8134 37.1678C46.0536 37.3442 46.2313 37.5927 46.3206 37.8772C46.2313 38.1616 46.0536 38.4101 45.8134 38.5865C45.5733 38.7628 45.2832 38.8579 44.9853 38.8579Z" fill="#C0EBF2"/>
<path d="M44.335 37.195C44.335 37.2744 44.3585 37.352 44.4026 37.418C44.4467 37.484 44.5094 37.5355 44.5827 37.5659C44.656 37.5962 44.7366 37.6042 44.8144 37.5887C44.8922 37.5732 44.9637 37.5349 45.0198 37.4788C45.0759 37.4226 45.1141 37.3511 45.1296 37.2732C45.1451 37.1953 45.1371 37.1146 45.1068 37.0412C45.0765 36.9678 45.0251 36.9051 44.9591 36.861C44.8932 36.8168 44.8156 36.7932 44.7363 36.7932C44.6836 36.7932 44.6314 36.8036 44.5827 36.8238C44.534 36.8439 44.4897 36.8735 44.4525 36.9108C44.4152 36.9481 44.3856 36.9924 44.3655 37.0412C44.3453 37.09 44.3349 37.1422 44.335 37.195Z" fill="#394E53"/>
<path d="M46.4487 42.6669L43.625 44.9237L44.5447 40.1682L46.4487 42.6669Z" fill="#D7E8F7"/>
<path d="M44.5446 40.1682L41.1406 41.8362L43.6242 44.9241L44.5446 40.1682Z" fill="#BFD3E2"/>
<path d="M41.1408 41.8364L38.2321 38.3843L37.9126 46.5355L41.1408 41.8364Z" fill="#EFDFCE"/>
<path d="M41.1406 41.8362L43.6242 44.9241L37.9121 46.5357L41.1406 41.8362Z" fill="#E2D3CC"/>
<path d="M43.6247 44.9236L45.4498 47.9165L37.9126 46.5353L43.6247 44.9236Z" fill="#D3C8C2"/>
<path d="M45.4498 47.9163L45.2792 54.6828L37.9126 46.5352L45.4498 47.9163Z" fill="#C6B6AC"/>
<path d="M51.5353 51.3235L45.4498 47.9167L45.2793 54.6832L51.5353 51.3235Z" fill="#D1D3D4"/>
<path d="M49.1841 46.336L51.5353 51.3233L53.5355 44.0161L49.1841 46.336Z" fill="#E2D3CC"/>
<path d="M49.184 46.3359L47.7456 49.2012L51.5351 51.3232L49.184 46.3359Z" fill="#E8E9EB"/>
<path d="M54.2083 48.6067L59.1867 53.9707L51.5352 51.3235L54.2083 48.6067Z" fill="#E8E9EB"/>
<path d="M54.2085 48.6067L59.0525 49.144L59.1869 53.9707L54.2085 48.6067Z" fill="#FEF8CB"/>
<path d="M59.0525 49.1439L58.327 47.2412L54.2085 48.6066L59.0525 49.1439Z" fill="#E7DAFF"/>
<path d="M46.9502 46.9942L47.7459 49.2012L49.1842 46.335L46.9502 46.9942Z" fill="#E7DAFF"/>
<path d="M46.9502 46.9944L45.4502 47.9165L47.7459 49.2014L46.9502 46.9944Z" fill="#CFCAE5"/>
<path d="M47.0839 58.4136L51.5353 51.323L45.2793 54.6828L47.0839 58.4136Z" fill="#C0B6E0"/>
<path d="M51.5352 51.323L53.3317 57.208L59.1867 53.9704L51.5352 51.323Z" fill="#D1D3D4"/>
<path d="M51.5353 51.323L47.084 58.4136L53.3325 57.208L51.5353 51.323Z" fill="#E2D3CC"/>
<path d="M47.458 60.1613L53.7866 62.1179L53.3318 57.2078L47.458 60.1613Z" fill="#E2D3CC"/>
<path d="M37.0836 65.4963L34.4102 62.998V66.1881L37.0836 65.4963Z" fill="#444B4C"/>
<path d="M35.6123 64.1203L37.496 62.3741L37.3901 60.6956H35.7476L35.6123 64.1203Z" fill="#201659"/>
<path d="M39.6866 62.0034L37.4956 62.3743L39.9596 58.5801L39.6866 62.0034Z" fill="#526386"/>
<path d="M37.3896 60.6959L37.9117 56.2241L39.9588 58.58L37.3896 60.6959Z" fill="#394E53"/>
<path d="M37.9127 56.224L34.4102 59.1709V56.1106L37.9127 56.224Z" fill="#201659"/>
<path d="M34.4103 59.1709L35.7475 60.6959L35.6119 64.1203L34.4097 62.9979L34.4103 59.1709Z" fill="#483063"/>
<path d="M35.7477 60.6959L37.9127 56.2241L34.4102 59.171L35.7477 60.6959Z" fill="#603063"/>
<path d="M37.3895 60.6959L37.9116 56.2241L35.7466 60.6959H37.3895Z" fill="#483063"/>
<path d="M37.3896 60.6962L37.4956 62.3748L39.9596 58.5806L37.3896 60.6962Z" fill="#29475E"/>
<path d="M39.6867 62.0034L37.0836 65.4963L35.6113 64.1208L37.4951 62.3746L39.6867 62.0034Z" fill="#483063"/>
<path d="M53.3315 57.2081L59.1865 53.9705L60.0974 61.1195L53.3315 57.2081Z" fill="#626BDD"/>
<path d="M59.187 53.9705L62.3755 56.2391L60.0976 61.1193L59.187 53.9705Z" fill="#717BC6"/>
<path d="M62.3752 56.2392L63.7367 50.7546L59.1865 53.9705L62.3752 56.2392Z" fill="#7E91C1"/>
<path d="M63.7372 50.7545L59.0527 49.1436L59.1872 53.9703L63.7372 50.7545Z" fill="#A799DB"/>
<path d="M63.7369 50.7545L62.4617 45.8699L59.0522 49.1436L63.7369 50.7545Z" fill="#87B0C4"/>
<path d="M62.4616 45.8701L59.0521 49.1438L58.3267 47.2412L62.4616 45.8701Z" fill="#62A8C4"/>
<path d="M63.7369 50.7546L66.5824 64.5702L62.3745 56.2392L63.7369 50.7546Z" fill="#8CCADB"/>
<path d="M62.3751 56.239L60.0972 61.1192L66.5817 64.57L62.3751 56.239Z" fill="#62A8C4"/>
<path d="M63.7368 50.7545L68.4099 51.4256L62.4619 45.8699L63.7368 50.7545Z" fill="#A5C2D3"/>
<path d="M51.2324 38.0503L62.5603 41.8999L62.4618 45.8704L51.2324 38.0503Z" fill="#626BDD"/>
<path d="M62.5603 41.8996L62.3113 37.4355L51.2324 38.0504L62.5603 41.8996Z" fill="#5381FF"/>
<path d="M51.2325 38.0499L50.864 33.8352L48.8418 36.7409L51.2325 38.0499Z" fill="#8A979B"/>
<path d="M62.5605 41.8994L67.913 44.5883L62.4619 45.8699L62.5605 41.8994Z" fill="#8A979B"/>
<path d="M62.5605 41.8996L67.336 41.8141L62.3115 37.4355L62.5605 41.8996Z" fill="#755984"/>
<path d="M62.3112 37.4353L61.536 34.4136L51.2319 38.0504L62.3112 37.4353Z" fill="#A799DB"/>
<path d="M55.9914 25.4124L50.8638 33.8352L48.3701 27.0258L55.9914 25.4124Z" fill="#7E91C1"/>
<path d="M55.9916 25.4124L58.4331 28.526H54.0957L55.9916 25.4124Z" fill="#777FA0"/>
<path d="M58.433 28.5259L59.3837 31.6947L54.0957 28.5259H58.433Z" fill="#717BC6"/>
<path d="M59.3835 31.6948L51.2324 38.05L61.5365 34.4132L59.3835 31.6948Z" fill="#53B1DB"/>
<path d="M59.3835 31.6948L50.8638 33.8353L51.2324 38.05L59.3835 31.6948Z" fill="#7E91C1"/>
<path d="M59.3836 31.6947L54.0956 28.5259L50.8638 33.8353L59.3836 31.6947Z" fill="#53B1DB"/>
<path d="M59.3838 31.6947L64.3401 29.0934L58.4336 28.5259L59.3838 31.6947Z" fill="#5D679B"/>
<path d="M59.3838 31.6948L65.3039 32.0317L61.5366 34.4132L59.3838 31.6948Z" fill="#338A9E"/>
<path d="M61.5366 34.4133L66.2033 38.5591L62.3111 37.4356L61.5366 34.4133Z" fill="#777FA0"/>
<path d="M55.9917 25.4125L58.4332 28.5261L63.1657 25.1973L55.9917 25.4125Z" fill="#727271"/>
<path d="M63.1655 25.1967L60.7216 22.4492L55.9917 25.4119L63.1655 25.1967Z" fill="#B2967D"/>
<path d="M60.098 61.1196L54.4469 68.3925L53.7866 62.1185L60.098 61.1196Z" fill="#B7BCCD"/>
<path d="M53.3315 57.2078L53.7863 62.1179L60.0974 61.119L53.3315 57.2078Z" fill="#C0B6E0"/>
<path d="M54.4469 68.3921L47.458 60.1614L53.7866 62.118L54.4469 68.3921Z" fill="#D7E8F7"/>
<path d="M47.458 60.1616L50.889 67.0691L54.4467 68.3922L47.458 60.1616Z" fill="#EFDFCE"/>
<path d="M47.458 60.1616L44.0708 65.3715L50.8888 67.0687L47.458 60.1616Z" fill="#D1D3D4"/>
<path d="M54.447 68.392L51.5377 70.9488L50.8892 67.0691L54.447 68.392Z" fill="#D1D3D4"/>
<path d="M54.4468 68.3922L64.4193 67.3787L57.6041 64.3276L54.4468 68.3922Z" fill="#87B0C4"/>
<path d="M60.0977 61.1196L64.4187 67.3796L57.6035 64.3284L60.0977 61.1196Z" fill="#53B1FF"/>
<path d="M54.4468 68.3922L61.1349 72.6104L60.0977 67.8184L54.4468 68.3922Z" fill="#7E91C1"/>
<path d="M54.4469 68.3921L51.5376 70.9489L61.135 72.6102L54.4469 68.3921Z" fill="#91A9D8"/>
<path d="M51.5374 70.9491L44.0708 65.3721L50.8888 67.0692L51.5374 70.9491Z" fill="#C6B6AC"/>
<path d="M51.5376 70.9487L59.8678 77.1351L57.9738 72.0628L51.5376 70.9487Z" fill="#A1AFB4"/>
<path d="M51.5376 70.9487L53.7866 77.0321L59.9524 77.1873L51.5376 70.9487Z" fill="#8A979B"/>
<path d="M51.5379 70.949L47.0916 74.78L45.1538 69.4695L51.5379 70.949Z" fill="#A7BCDB"/>
<path d="M44.0708 65.3721L45.1535 69.4695L51.5376 70.9491L44.0708 65.3721Z" fill="#B7BCCD"/>
<path d="M40.8986 67.6729L37.7916 70.5013L37.4277 69.0366L40.8986 67.6729Z" fill="#E8E9EB"/>
<path d="M37.4275 69.0372L34.4102 68.9158L37.7912 70.5019L37.4275 69.0372Z" fill="#DEFCFF"/>
<path d="M37.7915 70.5015L34.4102 70.8011L34.4062 68.915L37.7915 70.5015Z" fill="#E7FFE6"/>
<path d="M37.7915 70.5017L34.4102 72.9586V70.8013L37.7915 70.5017Z" fill="#C0EBF2"/>
<path d="M42.4194 72.5476L47.0913 74.7804L44.7558 77.434L42.4194 72.5476Z" fill="#C0B6E0"/>
<path d="M42.4195 72.5476L41.2266 79.3664L44.7556 77.4345L42.4195 72.5476Z" fill="#CFCAE5"/>
<path d="M41.2266 79.366L34.4102 82.7393L41.755 76.3433L41.2266 79.366Z" fill="#BFD3E2"/>
<path d="M41.2266 79.3665L38.0523 88.9043L34.4102 82.7398L41.2266 79.3665Z" fill="#C0EBF2"/>
<path d="M41.2266 79.3663L45.5135 85.6175L44.7542 77.4341L41.2266 79.3663Z" fill="#D1D3D4"/>
<path d="M41.2265 79.3665L43.6483 82.8978L38.0522 88.9046L41.2265 79.3665Z" fill="#E8E9EB"/>
<path d="M34.4102 82.7393L36.5211 86.3124L34.4102 88.4711V82.7393Z" fill="#EFDFCE"/>
<path d="M36.5214 86.3127L34.4102 91.3659V88.4716L36.5214 86.3127Z" fill="#FEF8CB"/>
<path d="M41.7553 76.3434L37.9127 74.6582L34.4102 82.7393L41.7553 76.3434Z" fill="#CFCAE5"/>
<path d="M37.9127 74.6582L34.4102 72.9583V82.7393L37.9127 74.6582Z" fill="#D1D3D4"/>
<path d="M37.7915 70.5017L37.9127 74.6586L34.4102 72.9586L37.7915 70.5017Z" fill="#A5C2D3"/>
<path d="M37.7915 70.5017L41.7553 76.3438L37.9127 74.6586L37.7915 70.5017Z" fill="#C0B6E0"/>
<path d="M40.8985 67.6729L42.4195 72.5472L37.7915 70.5013L40.8985 67.6729Z" fill="#B7A5BF"/>
<path d="M37.7915 70.5017L41.7553 76.3438L42.4197 72.5477L37.7915 70.5017Z" fill="#A5C2D3"/>
<path d="M44.071 65.3721L40.8984 67.673L45.1538 69.4695L44.071 65.3721Z" fill="#78B9DD"/>
<path d="M47.0913 74.7803L50.9524 82.1418L53.9606 77.037L47.0913 74.7803Z" fill="#AA9FE2"/>
<path d="M47.091 74.7803L45.5137 85.6176L44.7544 77.4342L47.091 74.7803Z" fill="#B7BCCD"/>
<path d="M47.0915 74.7803L49.5885 79.5416L45.5142 85.6174L47.0915 74.7803Z" fill="#A1AFB4"/>
<path d="M51.5376 70.9487L47.0913 74.7797L53.9606 77.0364L51.5376 70.9487Z" fill="#99AAC6"/>
<path d="M45.1534 69.4695L42.4194 72.5475L47.0913 74.7803L45.1534 69.4695Z" fill="#C6B6AC"/>
<path d="M45.1538 69.4694L40.8984 67.6729L42.4194 72.5472L45.1538 69.4694Z" fill="#B7BCCD"/>
<path d="M47.084 58.4138L47.4581 60.1616L53.3319 57.2083L47.084 58.4138Z" fill="#B7BCCD"/>
</svg>
